<?xml version="1.0" standalone="no"?>
<!DOCTYPE svg PUBLIC "-//W3C//DTD SVG 20010904//EN"
 "http://www.w3.org/TR/2001/REC-SVG-20010904/DTD/svg10.dtd">
<svg version="1.0" xmlns="http://www.w3.org/2000/svg"
 width="1024.000000pt" height="1024.000000pt" viewBox="0 0 1024.000000 1024.000000"
 preserveAspectRatio="xMidYMid meet">
<metadata>
Created by potrace 1.14, written by Peter Selinger 2001-2017
</metadata>
<g transform="translate(0.000000,1024.000000) scale(0.100000,-0.100000)"
fill="#000000" stroke="none">
<path d="M1149 9596 c-2 -3 -24 -7 -49 -10 -25 -3 -56 -8 -70 -11 -14 -3 -36
-8 -50 -11 -114 -23 -322 -118 -434 -199 -167 -120 -302 -272 -387 -435 -13
-25 -27 -46 -31 -48 -5 -2 -8 -11 -8 -21 0 -9 -4 -21 -9 -27 -5 -5 -21 -45
-36 -89 -15 -44 -29 -87 -32 -95 -3 -8 -7 -22 -8 -30 -3 -27 -15 -85 -22 -110
-5 -14 -9 -1526 -10 -3360 -2 -3666 -6 -3409 59 -3615 17 -55 30 -102 29 -104
-1 -2 1 -7 6 -10 4 -3 24 -37 42 -76 19 -38 40 -73 45 -77 7 -5 7 -8 1 -8 -6
0 -6 -3 1 -8 6 -4 27 -32 47 -62 19 -30 46 -66 58 -80 82 -91 108 -117 113
-112 3 3 6 0 6 -6 0 -10 78 -77 130 -112 12 -8 33 -23 45 -32 13 -10 28 -18
33 -18 6 0 12 -3 14 -8 6 -15 145 -80 238 -112 52 -18 139 -41 195 -51 96 -17
249 -18 4080 -16 2189 1 3994 6 4010 10 17 4 60 14 97 22 120 27 346 123 399
171 8 8 19 14 23 14 4 0 14 6 21 13 8 6 31 25 52 42 148 117 282 281 362 446
22 46 41 89 42 94 1 6 10 31 20 57 10 26 20 58 23 70 2 13 9 41 14 63 6 22 14
56 19 75 4 19 8 1538 10 3375 2 2882 0 3350 -13 3415 -7 41 -16 87 -18 101
-15 88 -126 347 -168 393 -10 11 -18 26 -18 33 0 7 -4 13 -8 13 -4 0 -15 12
-25 28 -9 15 -31 43 -49 63 -18 21 -40 45 -49 55 -99 117 -302 252 -479 320
-105 40 -97 38 -235 64 -97 19 -212 19 -4061 20 -2178 0 -3963 -2 -3965 -4z
m211 -636 c0 4 18 4 40 0 22 -4 40 -4 40 0 0 4 20 4 45 0 25 -4 45 -4 45 -1 0
7 118 4 138 -4 6 -2 12 -1 12 4 0 4 20 5 45 1 25 -4 45 -4 45 -1 0 7 89 5 96
-2 3 -3 18 -2 32 2 15 5 36 5 47 1 11 -4 31 -4 45 0 14 4 35 4 46 0 11 -5 26
-5 33 -1 7 5 30 5 52 1 21 -4 39 -4 39 0 0 4 20 4 45 0 25 -4 45 -4 45 -1 0 7
89 5 96 -2 3 -3 18 -2 32 2 15 5 36 5 47 1 11 -4 31 -4 45 0 14 4 35 4 46 0
11 -5 26 -5 33 -1 7 5 30 5 52 1 21 -4 39 -4 39 0 0 4 20 4 45 0 25 -4 45 -4
45 -1 0 7 89 5 96 -2 3 -3 18 -2 32 2 15 5 36 5 47 1 11 -4 31 -4 45 0 14 4
35 4 46 0 11 -5 26 -5 33 -1 7 5 30 5 52 1 21 -4 39 -4 39 0 0 4 20 4 45 0 25
-4 45 -4 45 -1 0 7 89 5 96 -2 3 -3 18 -2 32 2 15 5 36 5 47 1 11 -4 31 -4 45
0 14 4 34 4 44 0 11 -3 39 -3 63 0 24 4 46 3 48 -1 3 -4 18 -4 33 0 15 5 36 5
47 1 11 -4 30 -4 41 1 12 4 24 5 27 3 8 -8 153 -8 165 0 6 3 13 2 16 -3 3 -5
21 -5 41 -1 19 4 37 4 40 0 3 -4 21 -4 40 0 19 4 37 4 40 0 3 -4 21 -4 40 0
19 4 37 4 40 0 3 -4 21 -4 40 0 19 4 37 4 40 0 3 -4 21 -4 40 0 19 4 37 4 40
0 3 -4 21 -4 40 0 19 4 37 4 40 0 3 -4 21 -4 40 0 19 4 37 4 40 0 3 -4 21 -4
40 0 19 4 37 4 40 0 3 -4 21 -4 40 0 19 4 37 4 40 0 3 -4 21 -4 40 0 19 4 37
4 40 0 3 -4 21 -4 40 0 19 4 37 4 40 0 3 -4 21 -4 40 0 19 4 37 4 40 0 3 -4
21 -4 40 0 19 4 37 4 40 0 3 -4 21 -4 40 0 19 4 37 4 40 -1 3 -4 11 -6 18 -4
23 9 82 11 115 4 17 -4 32 -4 32 0 0 5 51 6 125 1 17 -1 35 -1 40 0 23 4 177
2 181 -3 3 -2 20 -1 38 3 19 4 40 4 47 0 7 -5 22 -5 33 0 11 4 33 4 47 0 15
-4 32 -4 38 0 7 4 30 4 51 0 22 -4 42 -5 44 -2 7 6 176 6 182 -1 3 -2 20 -1
38 3 19 4 40 4 47 0 7 -5 22 -5 33 0 11 4 33 4 47 0 15 -4 32 -4 38 0 7 4 30
4 51 0 22 -4 42 -5 44 -2 7 7 166 8 166 1 0 -3 19 -3 43 1 23 3 57 3 75 -1 17
-3 32 -4 32 0 0 7 179 5 186 -2 3 -3 18 -2 32 2 15 5 36 5 47 1 11 -4 29 -4
40 0 11 4 31 4 45 0 14 -4 34 -4 45 0 11 4 34 4 52 -1 18 -4 33 -4 33 0 0 3
42 5 92 4 51 -1 93 -2 93 -3 0 -1 24 -2 53 -3 28 -1 52 0 52 3 0 3 18 5 40 5
22 0 40 -4 40 -8 0 -5 4 -6 8 -3 10 6 40 7 155 6 42 -1 81 1 86 5 5 3 12 1 15
-4 3 -5 21 -5 41 -1 19 4 37 4 40 0 3 -4 21 -4 40 0 19 4 37 4 40 0 3 -4 21
-4 40 0 19 4 37 4 40 0 3 -4 21 -4 40 0 19 4 37 4 40 0 3 -4 21 -4 40 0 19 4
37 4 40 0 3 -4 21 -4 40 0 19 4 37 4 40 0 3 -4 21 -4 40 0 19 4 37 4 40 0 3
-4 21 -4 40 0 19 4 37 4 40 0 3 -4 21 -4 40 0 19 4 37 4 40 0 3 -4 21 -4 40 0
19 4 37 4 40 0 3 -4 21 -4 40 0 19 4 37 4 40 0 3 -4 21 -4 40 0 19 4 37 4 40
0 3 -4 21 -4 40 0 19 4 37 4 40 0 3 -4 21 -4 40 0 19 4 37 4 40 0 3 -4 20 -4
39 0 19 4 37 6 39 4 1 -2 30 -5 63 -8 32 -2 66 -7 74 -10 8 -3 28 -8 44 -10
16 -3 67 -24 114 -48 66 -32 103 -59 164 -120 43 -44 78 -85 78 -93 0 -8 5
-15 10 -15 6 0 10 -6 10 -14 0 -8 3 -16 8 -18 8 -3 58 -130 66 -169 3 -15 8
-53 12 -85 3 -32 7 -61 9 -64 2 -3 0 -12 -4 -18 -4 -7 -5 -33 -1 -57 4 -25 3
-45 -1 -45 -5 0 -6 -6 -4 -12 8 -19 11 -168 4 -168 -3 0 -3 -20 1 -45 4 -25 4
-45 0 -45 -4 0 -4 -19 -1 -42 4 -24 4 -59 1 -78 -3 -19 -3 -46 0 -59 3 -13 3
-52 0 -87 -3 -35 -3 -71 0 -80 4 -10 3 -37 0 -61 -4 -23 -4 -43 0 -43 4 0 4
-20 0 -45 -4 -25 -4 -45 0 -45 4 0 4 -18 0 -40 -4 -22 -4 -42 0 -45 4 -2 4
-25 0 -50 -4 -25 -3 -45 2 -45 5 0 7 -4 4 -8 -6 -9 -7 -41 -6 -180 0 -51 -2
-97 -5 -102 -3 -5 -1 -11 4 -14 5 -3 6 -21 1 -40 -4 -19 -4 -39 0 -45 4 -7 4
-29 1 -49 -4 -20 -4 -56 0 -79 3 -24 3 -43 -1 -43 -4 0 -4 -19 -1 -42 4 -24 4
-59 1 -78 -3 -19 -3 -46 0 -59 3 -13 3 -52 0 -87 -3 -35 -3 -71 0 -80 4 -10 3
-37 0 -61 -4 -23 -4 -43 0 -43 4 0 4 -20 0 -45 -4 -25 -4 -45 0 -45 4 0 4 -18
0 -40 -4 -22 -4 -42 0 -45 4 -2 4 -25 0 -50 -4 -25 -3 -45 2 -45 5 0 7 -4 4
-8 -6 -9 -7 -41 -6 -180 0 -51 -2 -97 -5 -102 -3 -5 -1 -11 4 -14 5 -3 6 -21
1 -40 -4 -19 -4 -39 0 -45 4 -7 4 -29 1 -49 -4 -20 -4 -56 0 -79 3 -24 3 -43
-1 -43 -4 0 -4 -19 -1 -42 4 -24 4 -59 1 -78 -3 -19 -3 -46 0 -59 3 -13 3 -52
0 -87 -3 -35 -3 -71 0 -80 4 -10 3 -37 0 -61 -4 -23 -4 -43 0 -43 4 0 4 -20 0
-45 -4 -25 -4 -45 0 -45 4 0 4 -18 0 -40 -4 -22 -4 -42 0 -45 4 -2 4 -25 0
-50 -4 -25 -4 -45 0 -45 4 0 4 -20 0 -43 -3 -24 -3 -52 0 -63 4 -10 4 -28 0
-39 -4 -11 -4 -29 0 -40 4 -11 4 -29 0 -39 -3 -11 -3 -37 0 -58 4 -21 4 -40 0
-43 -4 -3 -5 -22 -1 -42 3 -21 5 -55 3 -75 l-3 -37 -35 16 c-19 9 -34 20 -34
25 0 4 -5 8 -12 8 -18 0 -88 33 -88 42 0 4 -6 8 -13 8 -7 0 -64 27 -127 60
-63 33 -149 77 -190 97 -41 21 -76 41 -78 46 -2 4 -10 7 -18 7 -8 0 -32 11
-54 25 -22 14 -40 22 -40 18 0 -5 -4 -3 -8 2 -4 6 -34 24 -67 40 -33 17 -62
32 -65 35 -3 3 -12 6 -20 8 -8 2 -16 8 -18 13 -2 5 -12 9 -21 9 -10 0 -29 8
-42 18 -29 21 -117 64 -123 60 -2 -2 -12 4 -22 13 -11 8 -55 33 -99 56 -119
61 -387 199 -580 298 -368 190 -440 227 -450 233 -5 4 -12 7 -15 8 -10 1 -65
29 -70 34 -5 7 -135 69 -180 87 -45 18 -169 8 -225 -17 -41 -19 -260 -234
-1217 -1189 -642 -641 -1186 -1185 -1210 -1209 l-44 -42 -22 20 c-11 11 -24
20 -27 20 -9 0 -129 83 -137 95 -5 7 -8 7 -8 0 0 -7 -3 -7 -8 0 -10 14 -221
155 -232 155 -4 0 -10 3 -12 8 -4 10 -217 152 -228 152 -5 0 -10 3 -12 8 -3 7
-443 304 -463 311 -5 2 -12 7 -15 10 -3 4 -45 33 -95 65 -49 33 -96 65 -103
73 -7 7 -20 13 -27 13 -8 0 -18 6 -22 14 -4 7 -21 21 -38 30 -39 21 -69 40
-75 46 -10 12 -183 122 -221 142 -78 40 -226 28 -305 -26 -17 -12 -64 -50
-103 -85 -39 -35 -79 -71 -89 -80 -56 -48 -159 -141 -197 -176 -24 -22 -67
-60 -96 -85 -29 -25 -57 -49 -63 -55 -6 -5 -54 -48 -106 -95 -52 -47 -100 -89
-106 -95 -6 -5 -39 -35 -73 -65 -34 -30 -77 -68 -96 -85 -18 -16 -56 -50 -85
-75 -28 -25 -71 -63 -95 -85 -24 -22 -72 -65 -107 -95 -34 -30 -77 -68 -95
-85 -17 -16 -50 -46 -73 -65 -23 -19 -59 -51 -79 -70 -21 -19 -69 -62 -106
-95 -91 -79 -126 -111 -147 -131 -10 -10 -20 -16 -22 -13 -5 4 -9 68 -6 84 3
20 1 125 -3 132 -3 5 -1 17 3 28 4 11 4 32 -1 48 -4 15 -5 27 -1 27 8 0 7 98
0 106 -3 2 -2 22 2 44 4 22 5 42 2 45 -7 7 -4 154 3 165 3 5 1 11 -3 14 -5 3
-6 26 -2 51 4 25 4 45 0 45 -4 0 -4 20 0 43 3 24 3 52 0 62 -3 10 -3 38 0 62
4 23 4 43 0 43 -4 0 -4 18 0 40 4 23 3 40 -2 40 -5 0 -7 4 -4 8 6 10 7 37 6
160 -1 45 2 87 5 92 3 6 2 10 -3 10 -5 0 -6 17 -2 40 4 22 4 40 0 40 -4 0 -4
18 0 40 4 22 4 40 0 40 -4 0 -4 18 0 40 4 22 4 40 0 40 -4 0 -4 18 0 40 4 22
4 40 0 40 -4 0 -4 18 0 40 4 22 4 40 0 40 -4 0 -4 18 0 40 4 22 4 40 -1 40 -5
0 -6 6 -3 13 6 18 10 157 4 157 -3 0 -3 27 0 60 3 33 3 65 -1 71 -3 6 -3 26 1
44 4 18 4 38 0 45 -4 7 -4 24 -1 39 4 14 4 42 1 63 -4 20 -4 42 0 48 4 7 4 27
0 45 -4 18 -4 38 0 45 4 7 4 24 1 39 -4 14 -4 42 -1 63 4 20 4 42 0 48 -4 7
-4 27 0 45 4 18 4 38 0 45 -4 7 -4 24 -1 39 4 14 4 42 1 63 -4 20 -4 42 0 48
4 7 4 27 0 45 -4 18 -4 38 0 45 4 7 5 24 1 38 -4 14 -4 47 -1 74 4 26 4 48 1
48 -7 0 -4 139 3 157 3 7 2 13 -3 13 -5 0 -5 18 -1 40 4 22 4 40 0 40 -4 0 -4
18 0 40 4 22 4 40 0 40 -4 0 -4 18 0 40 4 22 4 40 0 40 -4 0 -4 18 0 40 4 22
4 40 0 40 -4 0 -4 18 0 40 4 22 4 40 0 40 -4 0 -4 18 0 40 4 23 3 40 -2 40 -5
0 -6 4 -3 10 5 8 6 44 5 165 -1 11 0 44 0 73 0 29 -2 57 -5 62 -3 6 -2 10 3
10 5 0 6 20 2 45 -4 25 -4 45 -1 45 7 0 6 99 -1 106 -3 2 -2 22 2 44 4 22 5
42 2 45 -7 7 -4 154 3 165 3 5 1 11 -3 14 -5 3 -6 26 -2 51 4 25 4 45 0 45 -4
0 -4 20 0 43 3 24 3 52 0 62 -3 10 -3 38 0 62 4 23 4 43 0 43 -4 0 -4 18 0 40
4 23 3 40 -2 40 -5 0 -7 4 -4 8 6 10 7 37 6 160 -1 45 2 87 5 92 3 6 2 10 -3
10 -5 0 -6 17 -2 40 4 22 4 40 0 40 -4 0 -4 18 0 40 4 22 4 40 0 40 -4 0 -4
18 0 40 4 22 4 40 0 40 -4 0 -4 18 0 40 4 22 4 40 0 40 -4 0 -4 18 0 40 4 22
4 40 0 40 -4 0 -4 18 0 40 4 23 3 40 -2 40 -5 0 -7 4 -4 8 3 5 7 51 10 104 14
262 173 474 431 574 11 4 25 9 30 10 6 1 12 3 15 4 12 4 49 10 105 15 33 3 61
8 63 9 2 2 19 0 38 -4 18 -4 34 -4 34 0z"/>
<path d="M2836 7682 c-2 -1 -23 -5 -47 -7 -101 -11 -176 -28 -220 -50 -16 -9
-32 -14 -36 -13 -12 4 -163 -74 -163 -84 0 -4 -5 -8 -11 -8 -6 0 -39 -22 -73
-49 -94 -75 -181 -175 -232 -266 -6 -11 -20 -36 -30 -55 -23 -40 -71 -171 -79
-215 -18 -94 -24 -139 -20 -143 3 -3 0 -11 -6 -18 -7 -8 -7 -14 0 -18 7 -4 7
-15 1 -30 -5 -13 -7 -26 -4 -29 2 -2 7 -31 9 -63 27 -327 238 -630 540 -777
110 -53 228 -86 332 -92 35 -2 67 -6 73 -10 5 -3 10 -3 10 2 0 4 21 8 48 7 42
0 80 5 175 22 30 6 145 47 187 67 31 14 148 86 175 107 71 55 215 215 215 239
0 6 4 11 8 11 8 0 81 138 86 163 2 7 8 25 15 41 6 16 13 38 16 50 2 11 4 21 6
21 1 0 3 9 5 20 1 11 5 33 9 49 3 16 7 52 9 81 1 28 5 56 8 61 3 5 2 18 -2 29
-4 11 -4 30 1 41 4 12 5 25 1 28 -7 8 -10 27 -14 79 -1 20 -4 37 -7 37 -4 0
-7 17 -9 37 -1 20 -7 40 -13 44 -6 3 -10 8 -9 10 7 16 -70 200 -91 219 -3 3
-21 27 -39 55 -43 63 -160 180 -227 227 -138 98 -313 162 -468 173 -33 2 -60
4 -60 5 0 3 -67 5 -69 2z"/>
</g>
</svg>
